# 3ds Max Wavefront OBJ Exporter v0.99 - (c)2007 guruware
# File Created: 21.08.2025 12:20:45

mtllib grass.mtl

#
# object Plane001
#

v  -0.4821 2.0000 -0.0000
v  -0.4425 0.0000 -0.0000
v  0.4614 0.0000 -0.0000
v  0.5010 2.0000 -0.0000
v  -0.4921 4.0000 0.0000
v  0.5110 4.0000 0.0000
v  -0.3519 5.1311 0.0000
v  0.3708 5.1311 0.0000
v  -0.0193 6.7193 0.0000
v  0.0382 6.7193 0.0000
# 10 vertices

vn 0.0000 -0.0000 1.0000
# 1 vertex normals

vt 0.0000 0.2500 0.0000
vt 0.0000 0.0000 0.0000
vt 1.0000 0.0000 0.0000
vt 1.0000 0.2500 0.0000
vt 0.0000 0.5000 0.0000
vt 1.0000 0.5000 0.0000
vt 0.0000 0.7500 0.0000
vt 1.0000 0.7500 0.0000
vt 0.0000 1.0000 0.0000
vt 1.0000 1.0000 0.0000
# 10 texture coords

o Plane001
g Plane001
usemtl wire_158155219
s 1
f 1/1/1 2/2/1 3/3/1 4/4/1 
f 5/5/1 1/1/1 4/4/1 6/6/1 
f 7/7/1 5/5/1 6/6/1 8/8/1 
f 9/9/1 7/7/1 8/8/1 10/10/1 
# 4 polygons

